<svg id="Layer_1" data-name="Layer 1" xmlns="http://www.w3.org/2000/svg" viewBox="0 0 249.99 131.08"><defs><style>.cls-1{fill:#f40000;stroke:#fff;stroke-miterlimit:10;stroke-width:1.3px;}.cls-2{font-size:29.76px;}.cls-11,.cls-2{font-family:KaushanScript-Regular, Kaushan Script;}.cls-3{letter-spacing:-0.02em;}.cls-4,.cls-5,.cls-6,.cls-7,.cls-8,.cls-9{fill:#fff;}.cls-4{letter-spacing:-0.01em;}.cls-5{letter-spacing:0em;}.cls-6{letter-spacing:-0.01em;}.cls-7{letter-spacing:-0.02em;}.cls-8{letter-spacing:-0.02em;}.cls-10{letter-spacing:-0.06em;}.cls-11{font-size:12px;}.cls-12{letter-spacing:-0.05em;}.cls-13{letter-spacing:0em;}</style></defs><path class="cls-1" d="M191.42,96c8-17.79,23.93-28.11,38.4-26.19,15.27,2,25.09,17.19,27.78,28.05,6.32,25.48-18.66,59.2-63.36,82.64" transform="translate(-90.01 -68.91)"/><path class="cls-1" d="M197.55,96c-8-17.79-23.92-28.11-38.39-26.19-15.28,2-25.09,17.19-27.79,28.05-6.31,25.48,18.66,59.2,63.36,82.64" transform="translate(-90.01 -68.91)"/><text class="cls-2" transform="translate(0 57.28)"><tspan class="cls-3">M</tspan><tspan x="27.35" y="0">y </tspan><tspan class="cls-4" x="48.98" y="0">B</tspan><tspan class="cls-5" x="70.14" y="0">r</tspan><tspan class="cls-6" x="82.13" y="0">o</tspan><tspan class="cls-5" x="94.95" y="0">the</tspan><tspan class="cls-7" x="132.83" y="0">r</tspan><tspan class="cls-8" x="144.2" y="0">’</tspan><tspan class="cls-9" x="149.53" y="0">s</tspan><tspan x="159.82" y="0"> </tspan><tspan class="cls-10" x="166.91" y="0">K</tspan><tspan x="184.58" y="0">eeper</tspan></text><text class="cls-11" transform="translate(67.67 126.67)"><tspan class="cls-12">W</tspan><tspan x="10.85" y="0">e all b</tspan><tspan class="cls-13" x="38.38" y="0">l</tspan><tspan x="41.16" y="0">eed red</tspan></text></svg>